<svg xmlns="http://www.w3.org/2000/svg"  viewBox="0 0 48 48" width="50px" height="50px"><path d="M 7.5 4 C 5.0324991 4 3 6.0324991 3 8.5 L 3 34.5 A 1.50015 1.50015 0 0 0 3.0234375 34.728516 C 3.1465046 37.089678 5.1106165 39 7.5 39 L 35.5 39 C 37.967501 39 40 36.967501 40 34.5 L 40 14.5 C 40 12.032499 37.967501 10 35.5 10 L 12 10 L 12 6.5 C 12 5.1364058 10.863594 4 9.5 4 L 7.5 4 z M 7.5 7 L 9 7 L 9 11.253906 A 1.50015 1.50015 0 0 0 9 11.740234 L 9 30 L 7.5 30 C 6.9694092 30 6.4744795 30.134564 6 30.306641 L 6 8.5 C 6 7.6535009 6.6535009 7 7.5 7 z M 12 13 L 35.5 13 C 36.346499 13 37 13.653501 37 14.5 L 37 34.5 C 37 35.346499 36.346499 36 35.5 36 L 7.5 36 C 6.6535009 36 6 35.346499 6 34.5 C 6 33.653501 6.6535009 33 7.5 33 L 9.5 33 C 10.863594 33 12 31.863594 12 30.5 L 12 13 z M 42 15.275391 L 42 34.5 C 42 38.084 39.084 41 35.5 41 L 8.2753906 41 C 8.8963906 42.742 10.547 44 12.5 44 L 35.5 44 C 40.738 44 45 39.738 45 34.5 L 45 19.5 C 45 17.547 43.742 15.897391 42 15.275391 z M 31.470703 16.986328 A 1.50015 1.50015 0 0 0 31.310547 17 L 27.5 17 A 1.50015 1.50015 0 1 0 27.5 20 L 27.878906 20 L 25.5 22.378906 L 22.560547 19.439453 A 1.50015 1.50015 0 0 0 20.439453 19.439453 L 16.439453 23.439453 A 1.50015 1.50015 0 1 0 18.560547 25.560547 L 21.5 22.621094 L 24.439453 25.560547 A 1.50015 1.50015 0 0 0 26.560547 25.560547 L 30 22.121094 L 30 22.5 A 1.50015 1.50015 0 1 0 33 22.5 L 33 18.673828 A 1.50015 1.50015 0 0 0 31.470703 16.986328 z M 17.5 29 A 1.50015 1.50015 0 1 0 17.5 32 L 31.5 32 A 1.50015 1.50015 0 1 0 31.5 29 L 17.5 29 z"/></svg>