<svg xmlns="http://www.w3.org/2000/svg"  viewBox="0 0 48 48" width="50px" height="50px"><path d="M 24 2 A 3.5 3.5 0 0 0 20.515625 5.7753906 L 9.4882812 12.123047 A 3.5 3.5 0 0 0 7.5 11.5 A 3.5 3.5 0 0 0 6 18.162109 L 6 29.841797 A 3.5 3.5 0 0 0 7.5 36.5 A 3.5 3.5 0 0 0 9.4902344 35.876953 L 20.511719 42.222656 A 3.5 3.5 0 0 0 24 46 A 3.5 3.5 0 0 0 27.484375 42.224609 L 38.511719 35.876953 A 3.5 3.5 0 0 0 40.5 36.5 A 3.5 3.5 0 0 0 42 29.837891 L 42 18.158203 A 3.5 3.5 0 0 0 40.5 11.5 A 3.5 3.5 0 0 0 38.509766 12.123047 L 27.488281 5.7773438 A 3.5 3.5 0 0 0 24 2 z M 22.011719 8.375 A 3.5 3.5 0 0 0 24 9 A 3.5 3.5 0 0 0 25.992188 8.3769531 L 37.011719 14.722656 A 3.5 3.5 0 0 0 39 18.162109 L 39 29.841797 A 3.5 3.5 0 0 0 37.015625 33.275391 L 25.988281 39.625 A 3.5 3.5 0 0 0 24 39 A 3.5 3.5 0 0 0 22.007812 39.623047 L 10.988281 33.277344 A 3.5 3.5 0 0 0 9 29.837891 L 9 18.158203 A 3.5 3.5 0 0 0 10.984375 14.724609 L 22.011719 8.375 z M 24 13 A 5 5 0 0 0 24 23 A 5 5 0 0 0 24 13 z M 19.5 26 C 17.57 26 16 27.57 16 29.5 L 16 30 C 16 32.851 19.439 35 24 35 C 28.561 35 32 32.851 32 30 L 32 29.5 C 32 27.57 30.43 26 28.5 26 L 19.5 26 z"/></svg>