<svg xmlns="http://www.w3.org/2000/svg"  viewBox="0 0 48 48" width="50px" height="50px"><path d="M 6.78125 1.78125 A 1.50015 1.50015 0 0 0 5.7363281 4.3574219 L 7.1503906 5.7714844 A 1.50015 1.50015 0 1 0 9.2714844 3.6503906 L 7.8574219 2.2363281 A 1.50015 1.50015 0 0 0 6.78125 1.78125 z M 41.173828 1.7832031 A 1.50015 1.50015 0 0 0 40.142578 2.2363281 L 38.728516 3.6503906 A 1.50015 1.50015 0 1 0 40.849609 5.7714844 L 42.263672 4.3574219 A 1.50015 1.50015 0 0 0 41.173828 1.7832031 z M 24 4.0214844 C 16.283 4.0244844 10 10.282 10 18 C 10 21.864 11.605047 25.529297 14.373047 28.154297 C 15.427047 29.153297 16.099062 30.48925 16.414062 31.90625 L 16.880859 34 L 31.119141 34 L 31.585938 31.90625 C 31.900938 30.48925 32.573953 29.153297 33.626953 28.154297 C 36.395953 25.529297 38 21.864 38 18 C 38 10.282 31.717 4.0244844 24 4.0214844 z M 1.5 15 A 1.50015 1.50015 0 1 0 1.5 18 L 4.5 18 A 1.50015 1.50015 0 1 0 4.5 15 L 1.5 15 z M 43.5 15 A 1.50015 1.50015 0 1 0 43.5 18 L 46.5 18 A 1.50015 1.50015 0 1 0 46.5 15 L 43.5 15 z M 39.773438 26.773438 A 1.50015 1.50015 0 0 0 38.728516 29.349609 L 40.142578 30.763672 A 1.50015 1.50015 0 1 0 42.263672 28.642578 L 40.849609 27.228516 A 1.50015 1.50015 0 0 0 39.773438 26.773438 z M 8.1816406 26.775391 A 1.50015 1.50015 0 0 0 7.1503906 27.228516 L 5.7363281 28.642578 A 1.50015 1.50015 0 1 0 7.8574219 30.763672 L 9.2714844 29.349609 A 1.50015 1.50015 0 0 0 8.1816406 26.775391 z M 17.546875 37 L 18.492188 41.259766 C 18.848187 42.861766 20.270156 44 21.910156 44 L 26.089844 44 C 27.729844 44 29.151813 42.861766 29.507812 41.259766 L 30.453125 37 L 17.546875 37 z"/></svg>