<svg xmlns="http://www.w3.org/2000/svg"  viewBox="0 0 48 48" width="50px" height="50px"><path d="M 24 4 C 23.93 4 23.849297 3.9997656 23.779297 4.0097656 C 21.479297 4.2697656 19.060312 8.57 17.820312 15 L 30.179688 15 C 28.939688 8.57 26.520703 4.2697656 24.220703 4.0097656 C 24.150703 3.9997656 24.07 4 24 4 z M 18.300781 4.8300781 C 12.980781 6.4000781 8.590625 10.13 6.140625 15 L 14.769531 15 C 15.469531 11 16.660781 7.3800781 18.300781 4.8300781 z M 29.699219 4.8300781 C 31.339219 7.3800781 32.530469 11 33.230469 15 L 41.859375 15 C 39.409375 10.13 35.019219 6.4000781 29.699219 4.8300781 z M 14.638672 18.027344 A 1.250125 1.250125 0 0 0 13.464844 19.103516 L 12.642578 24.261719 L 11.146484 20.804688 A 1.250125 1.250125 0 0 0 8.8535156 20.804688 L 7.3574219 24.261719 L 6.5351562 19.103516 A 1.250125 1.250125 0 0 0 5.3300781 18.033203 A 1.250125 1.250125 0 0 0 4.0664062 19.496094 L 5.5664062 28.896484 A 1.250125 1.250125 0 0 0 7.9472656 29.195312 L 10 24.447266 L 12.052734 29.195312 A 1.250125 1.250125 0 0 0 14.433594 28.896484 L 15.933594 19.496094 A 1.250125 1.250125 0 0 0 14.638672 18.027344 z M 28.638672 18.027344 A 1.250125 1.250125 0 0 0 27.464844 19.103516 L 26.642578 24.261719 L 25.146484 20.804688 A 1.250125 1.250125 0 0 0 22.853516 20.804688 L 21.357422 24.261719 L 20.535156 19.103516 A 1.250125 1.250125 0 0 0 19.330078 18.033203 A 1.250125 1.250125 0 0 0 18.066406 19.496094 L 19.566406 28.896484 A 1.250125 1.250125 0 0 0 21.947266 29.195312 L 24 24.447266 L 26.052734 29.195312 A 1.250125 1.250125 0 0 0 28.433594 28.896484 L 29.933594 19.496094 A 1.250125 1.250125 0 0 0 28.638672 18.027344 z M 42.638672 18.027344 A 1.250125 1.250125 0 0 0 41.464844 19.103516 L 40.642578 24.261719 L 39.146484 20.804688 A 1.250125 1.250125 0 0 0 36.853516 20.804688 L 35.357422 24.261719 L 34.535156 19.103516 A 1.250125 1.250125 0 0 0 33.330078 18.033203 A 1.250125 1.250125 0 0 0 32.066406 19.496094 L 33.566406 28.896484 A 1.250125 1.250125 0 0 0 35.947266 29.195312 L 38 24.447266 L 40.052734 29.195312 A 1.250125 1.250125 0 0 0 42.433594 28.896484 L 43.933594 19.496094 A 1.250125 1.250125 0 0 0 42.638672 18.027344 z M 6.140625 33 C 8.590625 37.87 12.980781 41.599922 18.300781 43.169922 C 16.660781 40.619922 15.469531 37 14.769531 33 L 6.140625 33 z M 17.820312 33 C 19.060312 39.43 21.479297 43.730234 23.779297 43.990234 C 23.849297 44.000234 23.93 44 24 44 C 24.07 44 24.150703 44.000234 24.220703 43.990234 C 26.520703 43.730234 28.939688 39.43 30.179688 33 L 17.820312 33 z M 33.230469 33 C 32.530469 37 31.339219 40.619922 29.699219 43.169922 C 35.019219 41.599922 39.409375 37.87 41.859375 33 L 33.230469 33 z"/></svg>