<svg xmlns="http://www.w3.org/2000/svg"  viewBox="0 0 48 48" width="50px" height="50px"><path d="M 24 2 A 3.5 3.5 0 0 0 20.515625 5.7753906 L 9.4882812 12.123047 A 3.5 3.5 0 0 0 7.5 11.5 A 3.5 3.5 0 0 0 6 18.162109 L 6 29.841797 A 3.5 3.5 0 0 0 7.5 36.5 A 3.5 3.5 0 0 0 9.4902344 35.876953 L 20.511719 42.222656 A 3.5 3.5 0 0 0 24 46 A 3.5 3.5 0 0 0 27.484375 42.224609 L 38.511719 35.876953 A 3.5 3.5 0 0 0 40.5 36.5 A 3.5 3.5 0 0 0 42 29.837891 L 42 18.158203 A 3.5 3.5 0 0 0 40.5 11.5 A 3.5 3.5 0 0 0 38.509766 12.123047 L 27.488281 5.7773438 A 3.5 3.5 0 0 0 24 2 z M 22.011719 8.375 A 3.5 3.5 0 0 0 24 9 A 3.5 3.5 0 0 0 25.992188 8.3769531 L 37.011719 14.722656 A 3.5 3.5 0 0 0 39 18.162109 L 39 29.841797 A 3.5 3.5 0 0 0 37.015625 33.275391 L 25.988281 39.625 A 3.5 3.5 0 0 0 24 39 A 3.5 3.5 0 0 0 22.007812 39.623047 L 10.988281 33.277344 A 3.5 3.5 0 0 0 9 29.837891 L 9 18.158203 A 3.5 3.5 0 0 0 10.984375 14.724609 L 22.011719 8.375 z M 24 13 C 22.458334 13 21.112148 13.632133 20.253906 14.597656 C 19.395664 15.563179 19 16.791667 19 18 C 19 19.208333 19.395664 20.436821 20.253906 21.402344 C 21.112148 22.367867 22.458334 23 24 23 C 25.541666 23 26.887852 22.367867 27.746094 21.402344 C 28.604336 20.436821 29 19.208333 29 18 C 29 16.791667 28.604336 15.563179 27.746094 14.597656 C 26.887852 13.632133 25.541666 13 24 13 z M 24 16 C 24.791666 16 25.195482 16.242867 25.503906 16.589844 C 25.81233 16.936821 26 17.458333 26 18 C 26 18.541667 25.81233 19.063179 25.503906 19.410156 C 25.195482 19.757133 24.791666 20 24 20 C 23.208334 20 22.804518 19.757133 22.496094 19.410156 C 22.18767 19.063179 22 18.541667 22 18 C 22 17.458333 22.18767 16.936821 22.496094 16.589844 C 22.804518 16.242867 23.208334 16 24 16 z M 19.5 25 C 17.585045 25 16 26.585045 16 28.5 L 16 30 C 16 31.719216 17.236679 33.010544 18.693359 33.794922 C 20.15004 34.5793 21.986755 35 24 35 C 26.013245 35 27.84996 34.5793 29.306641 33.794922 C 30.763321 33.010544 32 31.719216 32 30 L 32 28.5 C 32 26.585045 30.414955 25 28.5 25 L 19.5 25 z M 19.5 28 L 28.5 28 C 28.795045 28 29 28.204955 29 28.5 L 29 30 C 29 30.213784 28.780585 30.671925 27.884766 31.154297 C 26.988946 31.636669 25.576755 32 24 32 C 22.423245 32 21.011054 31.636669 20.115234 31.154297 C 19.219415 30.671925 19 30.213784 19 30 L 19 28.5 C 19 28.204955 19.204955 28 19.5 28 z"/></svg>