<svg xmlns="http://www.w3.org/2000/svg"  viewBox="0 0 48 48" width="50px" height="50px"><path d="M 24 4 C 12.972066 4 4 12.972074 4 24 C 4 35.027926 12.972066 44 24 44 C 35.027934 44 44 35.027926 44 24 C 44 12.972074 35.027934 4 24 4 z M 30 8.1054688 C 36.431048 10.526849 41 16.709831 41 24 C 41 28.716761 39.08971 32.976519 36 36.052734 L 36 34 C 36 31.791 34.209 30 32 30 L 30 30 C 29.448 30 29 29.552 29 29 C 29 26.791 27.209 25 25 25 L 19 25 L 19 20 L 20 20 C 21.105 20 22 19.105 22 18 L 22 17 C 22 15.343 23.343 14 25 14 L 26 14 C 28.209 14 30 12.209 30 10 L 30 8.1054688 z M 7.59375 19.59375 L 18 30 L 18 32 C 18 34.21 19.79 36 22 36 L 22 40.873047 C 13.542065 39.884939 7 32.728416 7 24 C 7 22.472917 7.2182364 21.000529 7.59375 19.59375 z"/></svg>