<svg xmlns="http://www.w3.org/2000/svg"  viewBox="0 0 48 48" width="48px" height="48px"><path d="M 26.052734 4.0253906 C 25.028484 4.0252656 24.003656 4.4138594 23.222656 5.1933594 L 13.738281 14.677734 C 13.948281 14.778734 14.154469 14.879859 14.355469 15.005859 C 15.065469 15.448859 15.649672 15.965484 16.138672 16.521484 L 25.34375 7.3164062 C 25.73375 6.9254062 26.369813 6.9254531 26.757812 7.3144531 C 27.146812 7.7054531 27.146766 8.3365625 26.759766 8.7265625 L 19.332031 16.154297 C 18.746031 16.740297 18.746031 17.689391 19.332031 18.275391 C 19.918031 18.861391 20.867125 18.861391 21.453125 18.275391 L 22.544922 17.183594 L 28.878906 10.851562 L 28.882812 10.847656 L 31 8.7304688 C 31.391 8.3394687 32.025062 8.3395156 32.414062 8.7285156 C 32.521062 8.8345156 32.592625 8.9617031 32.640625 9.0957031 C 33.675625 8.9917031 34.7205 9.1762969 35.6875 9.6542969 C 35.7515 8.5582969 35.371156 7.4434219 34.535156 6.6074219 C 33.178156 5.2504219 31.080297 5.0789375 29.529297 6.0859375 C 29.353297 5.7689375 29.147906 5.4623594 28.878906 5.1933594 C 28.099906 4.4143594 27.076984 4.0255156 26.052734 4.0253906 z M 4.0195312 9.0234375 C 3.2552813 9.0273125 2.5086562 9.2601562 1.8476562 9.7226562 C 0.42365625 10.721656 -0.27753125 12.599531 0.10546875 14.394531 C 0.76646875 17.497531 1.0549687 19.452109 1.0429688 25.162109 C 1.0389688 26.929109 1.97475 29.199359 3.21875 30.443359 L 6.1464844 33.373047 C 6.0844844 32.961047 6.0419687 32.552203 6.0429688 32.158203 C 6.0459688 30.935203 6.0347656 29.901234 6.0097656 28.990234 L 5.3398438 28.322266 C 4.6588437 27.640266 4.0409688 26.138922 4.0429688 25.169922 C 4.0549687 19.196922 3.7310625 17.014531 3.0390625 13.769531 C 2.8840625 13.041531 3.2043594 12.436641 3.5683594 12.181641 C 3.8963594 11.952641 4.2719375 11.972094 4.7109375 12.246094 C 6.0569375 13.086094 6.3787187 14.274453 6.6367188 16.064453 C 6.9537188 15.702453 7.2992656 15.365937 7.6972656 15.085938 C 8.2182656 14.720937 8.7802813 14.45725 9.3632812 14.28125 C 8.9972813 12.63225 8.262875 10.927172 6.296875 9.7011719 C 5.564875 9.2441719 4.7837812 9.0195625 4.0195312 9.0234375 z M 33.052734 11.03125 C 32.025988 11.031224 30.999681 11.419081 30.224609 12.193359 A 1.50015 1.50015 0 0 0 30.222656 12.193359 L 17.136719 25.279297 C 16.909611 24.53484 16.756347 23.666187 16.599609 22.572266 C 16.327378 20.672272 15.715757 18.210894 13.298828 16.703125 A 1.50015 1.50015 0 0 0 13.296875 16.701172 C 11.683418 15.695325 9.7055792 15.946443 8.5097656 16.988281 C 7.313952 18.03012 6.7449901 19.702164 7.1054688 21.394531 C 7.7651132 24.490318 8.0548569 26.362652 8.0429688 32.162109 C 8.0386888 34.097 8.8459028 36.072465 10.21875 37.445312 L 16.857422 44.083984 C 20.71076 47.937323 27.006036 47.937323 30.859375 44.083984 L 45.779297 29.164062 C 47.328734 27.614625 47.327854 25.057956 45.779297 23.507812 A 1.50015 1.50015 0 0 0 45.779297 23.505859 C 45.427309 23.153872 45.018433 22.893177 44.585938 22.701172 C 45.069757 21.296507 44.771135 19.670744 43.660156 18.558594 A 1.50015 1.50015 0 0 0 43.658203 18.556641 C 43.306215 18.204653 42.897225 17.944022 42.464844 17.751953 C 42.948663 16.34672 42.650041 14.719572 41.539062 13.607422 A 1.50015 1.50015 0 0 0 41.537109 13.607422 C 40.762391 12.832703 39.735731 12.445339 38.708984 12.445312 C 37.947497 12.445294 37.187991 12.661799 36.529297 13.087891 C 36.353841 12.768887 36.149442 12.462217 35.880859 12.193359 C 35.106141 11.418641 34.079481 11.031276 33.052734 11.03125 z M 33.052734 14.011719 C 33.305936 14.011829 33.558484 14.113172 33.759766 14.314453 C 34.163209 14.71831 34.162328 15.325953 33.759766 15.728516 L 27.041016 22.445312 L 27.041016 22.447266 L 26.333984 23.154297 A 1.50015 1.50015 0 1 0 28.455078 25.275391 L 29.162109 24.568359 L 35.880859 17.851562 C 35.883867 17.848555 35.885676 17.844812 35.888672 17.841797 L 38.001953 15.728516 C 38.40581 15.325073 39.013453 15.325953 39.416016 15.728516 C 39.819459 16.132372 39.818578 16.740016 39.416016 17.142578 L 38.003906 18.554688 C 38.003906 18.554688 38.001953 18.556641 38.001953 18.556641 A 1.5005306 1.5005306 0 0 0 37.998047 18.560547 L 29.871094 26.689453 A 1.50015 1.50015 0 1 0 31.992188 28.810547 L 40.078125 20.722656 A 1.5005306 1.5005306 0 0 0 40.123047 20.679688 C 40.526903 20.276243 41.134547 20.275218 41.537109 20.677734 C 41.940552 21.081591 41.939672 21.691188 41.537109 22.09375 L 40.142578 23.488281 C 40.135862 23.494896 40.127773 23.499187 40.121094 23.505859 L 40.123047 23.507812 L 32.699219 30.931641 A 1.50015 1.50015 0 1 0 34.820312 33.052734 L 42.242188 25.628906 C 42.645572 25.225935 43.253677 25.225848 43.65625 25.626953 C 44.059693 26.03081 44.060719 26.640406 43.658203 27.042969 L 28.738281 41.962891 C 26.03162 44.669552 21.68713 44.669552 18.980469 41.962891 L 12.339844 35.324219 C 11.792691 34.777066 11.041246 32.949032 11.042969 32.169922 C 11.055079 26.261379 10.715418 23.943744 10.039062 20.769531 C 9.9015415 20.123898 10.156032 19.532661 10.480469 19.25 C 10.804905 18.967339 11.043395 18.83194 11.710938 19.248047 C 13.162007 20.153278 13.381138 21.268791 13.628906 22.998047 C 13.876675 24.727303 13.947902 27.031886 15.726562 28.810547 A 1.50015 1.50015 0 0 0 17.849609 28.810547 L 32.34375 14.314453 C 32.545678 14.112732 32.799533 14.011609 33.052734 14.011719 z"/></svg>